<svg width="106" height="22" viewBox="0 0 106 22" fill="none" xmlns="http://www.w3.org/2000/svg">
<path d="M30.3355 1.27962V19.1596H27.4194V1.27962H30.3355Z" fill="black"/>
<path d="M33.5666 14.0576V11.9184H41.9322L41.5944 12.4904C41.5944 12.4446 41.5944 12.395 41.5944 12.3416C41.5944 12.2806 41.5944 12.2311 41.5944 12.1929C41.5944 11.6667 41.4781 11.1748 41.2454 10.7172C41.0127 10.252 40.6599 9.87834 40.187 9.59616C39.7141 9.30636 39.1136 9.16146 38.3855 9.16146C37.665 9.16146 37.0382 9.3178 36.5053 9.63048C35.9798 9.93553 35.5707 10.3779 35.278 10.9575C34.9928 11.5371 34.8501 12.2311 34.8501 13.0395C34.8501 13.8707 34.989 14.5876 35.2667 15.1901C35.5445 15.7849 35.9498 16.2425 36.4827 16.5628C37.0232 16.8755 37.68 17.0319 38.4531 17.0319C38.9785 17.0319 39.4327 16.9823 39.8155 16.8831C40.1983 16.784 40.5098 16.6505 40.75 16.4828C40.9977 16.3074 41.1816 16.1205 41.3017 15.9222C41.4293 15.7239 41.5044 15.5257 41.5269 15.3274H44.4768C44.4318 15.8383 44.2629 16.3379 43.9702 16.8259C43.6849 17.3064 43.2833 17.7449 42.7654 18.1415C42.2475 18.5304 41.617 18.8431 40.8739 19.0795C40.1382 19.3083 39.2976 19.4227 38.3518 19.4227C37.0682 19.4227 35.946 19.1558 34.9852 18.622C34.0245 18.0881 33.2738 17.3445 32.7334 16.3912C32.2005 15.4379 31.934 14.3474 31.934 13.1195C31.934 11.8612 32.2042 10.7592 32.7446 9.81351C33.2926 8.86784 34.0507 8.1319 35.019 7.60568C35.9873 7.07184 37.0982 6.80491 38.3518 6.80491C39.6428 6.80491 40.7575 7.07184 41.6958 7.60568C42.6416 8.13953 43.3697 8.8831 43.8801 9.83639C44.3905 10.7821 44.6457 11.8841 44.6457 13.1424C44.6457 13.3026 44.642 13.4742 44.6344 13.6572C44.6269 13.8402 44.6157 13.9737 44.6007 14.0576H33.5666Z" fill="black"/>
<path d="M50.2847 19.4113C49.3914 19.4113 48.607 19.2702 47.9315 18.988C47.2559 18.6982 46.7267 18.2826 46.3439 17.7411C45.9611 17.1996 45.7697 16.5476 45.7697 15.7849C45.7697 14.9537 45.9911 14.2711 46.434 13.7373C46.8844 13.1958 47.4886 12.7802 48.2467 12.4904C49.0049 12.1929 49.8456 12.0023 50.7688 11.9184C52.1349 11.7811 53.0882 11.6515 53.6287 11.5294C54.1766 11.3998 54.4506 11.1939 54.4506 10.9117C54.4506 10.9041 54.4506 10.9003 54.4506 10.9003C54.4506 10.8926 54.4506 10.8888 54.4506 10.8888C54.4506 10.355 54.2142 9.94316 53.7413 9.65336C53.2684 9.36356 52.6003 9.21866 51.7371 9.21866C50.8289 9.21866 50.1308 9.38262 49.6429 9.71056C49.1625 10.0309 48.9223 10.5418 48.9223 11.2435H45.9949C45.9949 10.2902 46.2426 9.48558 46.738 8.82971C47.2409 8.16622 47.9277 7.66288 48.7984 7.31969C49.6692 6.97651 50.6562 6.80491 51.7596 6.80491C52.788 6.80491 53.73 6.96126 54.5857 7.27394C55.4414 7.58662 56.1282 8.05945 56.6462 8.69244C57.1641 9.32542 57.423 10.1148 57.423 11.0604C57.423 11.2206 57.423 11.3807 57.423 11.5409C57.423 11.701 57.423 11.8612 57.423 12.0213V16.5972C57.423 16.887 57.4306 17.1729 57.4456 17.4551C57.4681 17.7297 57.5094 17.9775 57.5694 18.1987C57.6445 18.4427 57.7346 18.6486 57.8396 18.8164C57.9447 18.9842 58.0273 19.0986 58.0873 19.1596H55.1599C55.1074 19.1062 55.0323 19.0033 54.9348 18.8507C54.8447 18.6906 54.7621 18.5076 54.687 18.3016C54.612 18.0729 54.5557 17.8288 54.5182 17.5695C54.4806 17.3026 54.4619 17.009 54.4619 16.6887L55.0473 17.1005C54.8222 17.5657 54.4769 17.9737 54.0115 18.3245C53.5536 18.6677 53.0057 18.9346 52.3676 19.1253C51.7296 19.3159 51.0353 19.4113 50.2847 19.4113ZM51.0053 17.0433C51.6208 17.0433 52.1912 16.9365 52.7167 16.723C53.2421 16.5094 53.6662 16.1815 53.989 15.7392C54.3117 15.2892 54.4731 14.7134 54.4731 14.0118V12.3874L55.1937 13.2111C54.7133 13.3941 54.1353 13.5466 53.4598 13.6686C52.7842 13.783 52.1012 13.8745 51.4106 13.9432C50.5249 14.0271 49.8568 14.1834 49.4064 14.4122C48.9636 14.641 48.7422 15.0147 48.7422 15.5333C48.7422 16.0366 48.9298 16.4141 49.3051 16.6658C49.6804 16.9175 50.2471 17.0433 51.0053 17.0433Z" fill="black"/>
<path d="M64.237 19.4113C63.2537 19.4113 62.3417 19.171 61.501 18.6906C60.6678 18.2025 59.9998 17.4856 59.4969 16.54C58.994 15.5943 58.7425 14.4313 58.7425 13.0509C58.7425 11.7087 58.9977 10.5723 59.5081 9.64192C60.0261 8.7115 60.7016 8.00606 61.5348 7.5256C62.3755 7.04514 63.2762 6.80491 64.237 6.80491C65.1753 6.80491 66.0423 7.04133 66.8379 7.51417C67.6336 7.97937 68.2716 8.62761 68.752 9.45889C69.2324 10.2902 69.4726 11.2435 69.4726 12.3188C69.4726 12.3493 69.4726 12.3798 69.4726 12.4103C69.4726 12.4408 69.4726 12.4713 69.4726 12.5018L68.0089 12.5361C68.0089 12.5132 68.0089 12.4904 68.0089 12.4675C68.0089 12.437 68.0089 12.4103 68.0089 12.3874C68.0089 11.7849 67.8588 11.2587 67.5585 10.8088C67.2658 10.3588 66.883 10.008 66.4101 9.75631C65.9447 9.49702 65.4493 9.36737 64.9238 9.36737C64.0606 9.36737 63.325 9.6648 62.717 10.2597C62.109 10.8469 61.805 11.7773 61.805 13.0509C61.805 14.3169 62.109 15.2511 62.717 15.8536C63.325 16.4561 64.0606 16.7573 64.9238 16.7573C65.4718 16.7573 65.9785 16.6238 66.4439 16.3569C66.9092 16.09 67.2845 15.7239 67.5698 15.2587C67.8625 14.7859 68.0089 14.2444 68.0089 13.6343L69.4726 13.703C69.4726 14.7706 69.2362 15.7392 68.7633 16.6086C68.2979 17.4704 67.6711 18.1529 66.883 18.6563C66.0948 19.1596 65.2128 19.4113 64.237 19.4113ZM68.0089 19.1596V1.27962H70.9813V19.1596H68.0089Z" fill="black"/>
<path d="M81.8655 19.1596V13.211C81.8655 12.8429 81.8655 12.55 81.8655 12.3322C81.8655 12.1144 81.8655 11.9003 81.8655 11.69C81.8655 11.0216 81.7473 10.4395 81.5107 9.94374C81.2815 9.44051 80.9267 9.04995 80.4462 8.77205C79.9657 8.48663 79.3484 8.34392 78.5943 8.34392C77.929 8.34392 77.3043 8.51292 76.7203 8.85091C76.1363 9.18139 75.6632 9.63204 75.301 10.2029C74.9461 10.7737 74.7687 11.4159 74.7687 12.1294L73.937 11.814C73.937 10.9051 74.1662 10.0902 74.6245 9.36916C75.0903 8.64812 75.6965 8.07729 76.4431 7.65668C77.1971 7.23607 77.9955 7.02576 78.8383 7.02576C79.7328 7.02576 80.509 7.19851 81.1669 7.54401C81.8249 7.882 82.3313 8.37397 82.6861 9.0199C83.0484 9.65833 83.2295 10.4357 83.2295 11.352C83.2295 11.6675 83.2295 12.0055 83.2295 12.366C83.2295 12.7265 83.2295 13.0533 83.2295 13.3462V19.1596H81.8655ZM73.3937 19.1596V7.19476H74.7687V19.1596H73.3937Z" fill="black"/>
<path d="M89.3815 19.3737C88.4796 19.3737 87.6923 19.2347 87.0196 18.9568C86.3469 18.6789 85.8257 18.2771 85.4561 17.7513C85.0938 17.218 84.9127 16.5759 84.9127 15.8248C84.9127 15.0662 85.1049 14.4353 85.4893 13.932C85.8737 13.4213 86.4208 13.0232 87.1305 12.7378C87.8475 12.4524 88.694 12.2609 89.6698 12.1632C91.1705 12.0055 92.2461 11.8478 92.8967 11.69C93.5546 11.5248 93.8836 11.2619 93.8836 10.9014C93.8836 10.8788 93.8836 10.8563 93.8836 10.8338C93.8836 10.8037 93.8836 10.7737 93.8836 10.7437C93.8836 9.97003 93.5731 9.36916 92.9521 8.94104C92.3311 8.51292 91.4477 8.29886 90.3019 8.29886C89.1043 8.29886 88.1691 8.53921 87.4964 9.0199C86.8311 9.5006 86.4984 10.2141 86.4984 11.1605H85.1456C85.1456 10.2968 85.36 9.55693 85.7887 8.94104C86.2175 8.31764 86.82 7.84445 87.5962 7.52148C88.3724 7.191 89.278 7.02576 90.313 7.02576C91.2444 7.02576 92.0835 7.17223 92.8301 7.46515C93.5768 7.75807 94.1682 8.1862 94.6043 8.74951C95.0479 9.30532 95.2697 9.99257 95.2697 10.8113C95.2697 10.969 95.2697 11.1267 95.2697 11.2844C95.2697 11.4347 95.2697 11.5886 95.2697 11.7464V17.0415C95.2697 17.2969 95.2808 17.541 95.3029 17.7738C95.3251 18.0067 95.3584 18.2095 95.4027 18.3822C95.4693 18.6 95.5395 18.7728 95.6134 18.9005C95.6873 19.0282 95.7465 19.1145 95.7908 19.1596H94.4047C94.3752 19.1296 94.3271 19.0507 94.2606 18.923C94.194 18.7878 94.1275 18.6301 94.061 18.4498C94.0018 18.2621 93.9612 18.0518 93.939 17.8189C93.9168 17.5861 93.9057 17.3044 93.9057 16.9739L94.1275 17.1429C93.891 17.5861 93.5472 17.9766 93.0963 18.3146C92.6453 18.6451 92.1057 18.9042 91.4773 19.092C90.8489 19.2798 90.1503 19.3737 89.3815 19.3737ZM89.5922 18.1231C90.3906 18.1231 91.1114 17.9917 91.7545 17.7288C92.4051 17.4584 92.9225 17.0753 93.3069 16.5796C93.6914 16.0764 93.8836 15.468 93.8836 14.7545V11.9604L94.183 12.4787C93.7542 12.6965 93.1702 12.873 92.4309 13.0082C91.6917 13.1359 90.8896 13.241 90.0247 13.3236C88.8049 13.4438 87.8771 13.6804 87.2414 14.0334C86.613 14.3864 86.2988 14.961 86.2988 15.7572C86.2988 16.5233 86.576 17.1091 87.1305 17.5147C87.6849 17.9203 88.5055 18.1231 89.5922 18.1231Z" fill="black"/>
<path d="M106 7.19476L101.93 19.1596H100.178L96.009 7.19476H97.4283L101.165 18.3372H100.943L104.581 7.19476H106Z" fill="black"/>
<path d="M21.6844 18.2767L23.689 22L11.8446 17.9172L0 22L2.00447 18.2767L11.8446 14.8849L21.6844 18.2767Z" fill="#EA1212"/>
<path d="M17.3736 10.2699L19.601 14.407L11.8446 11.7335L4.08793 14.407L6.31518 10.27L11.8446 8.36412L17.3736 10.2699Z" fill="#EA1212"/>
<path d="M11.8446 0.000348408L15.2903 6.40026L11.8446 5.21265L8.39853 6.40037L11.8443 0.000348408L11.8444 0L11.8445 0.000116136L11.8446 0V0.000348408Z" fill="#EA1212"/>
<path d="M21.6844 18.2767L23.689 22L11.8446 17.9172V14.8849L21.6844 18.2767Z" fill="#FC4E4E"/>
<path d="M17.3736 10.2699L19.601 14.407L11.8446 11.7335V8.36412L17.3736 10.2699Z" fill="#FC4E4E"/>
<path d="M11.8446 0.000348408L15.2903 6.40026L11.8446 5.21265L11.8443 0.000348408L11.8444 0L11.8445 0.000116136L11.8446 0V0.000348408Z" fill="#FC4E4E"/>
</svg>
